<svg width="423" height="507" viewBox="0 0 423 507" fill="none" xmlns="http://www.w3.org/2000/svg">
<path d="M0 0H31.688V1.864H50.328V3.728H70.832V5.592H82.016V7.456H102.52V9.32H123.024V11.184H143.528V13.048H152.848V14.912H173.352V16.776H193.856V18.64H214.36V20.504H225.544V22.368H246.048V24.232H266.552V26.096H287.056V27.96H296.376V29.824H316.88V31.688H337.384V33.552H356.024V35.416H376.528V37.28H387.712V39.144H404.488V41.008H423.128V72.696H421.264V119.296H419.4V134.208H417.536V137.936H415.672V145.392H413.808V149.12H411.944V152.848H410.08V158.44H408.216V164.032H406.352V171.488H404.488V175.216H402.624V180.808H400.76V186.4H398.896V191.992H397.032V193.856H395.168V199.448H393.304V205.04H391.44V208.768H389.576V214.36H387.712V219.952H385.848V227.408H383.984V231.136H382.12V234.864H380.256V240.456H378.392V244.184H376.528V249.776H374.664V253.504H372.8V260.96H370.936V266.552H369.072V270.28H367.208V274.008H365.344V279.6H363.48V285.192H361.616V290.784H359.752V294.512H357.888V298.24H356.024V305.696H354.16V311.288H352.296V315.016H350.432V320.608H348.568V326.2H346.704V331.792H344.84V337.384H342.976V339.248H341.112V344.84H339.248V350.432H337.384V361.616H335.52V387.712H337.384V410.08H339.248V430.584H341.112V462.272H342.976V475.32H344.84V499.552H339.248V497.688H313.152V499.552H255.368V501.416H193.856V503.28H132.344V505.144H96.928V507.008H91.336V505.144H89.472V501.416H91.336V484.64H93.2V456.68H95.064V447.36H96.928V434.312H95.064V432.448H93.2V424.992H91.336V421.264H89.472V417.536H87.608V413.808H85.744V410.08H83.88V406.352H82.016V402.624H80.152V398.896H78.288V393.304H76.424V389.576H74.56V385.848H72.696V382.12H70.832V378.392H68.968V374.664H67.104V370.936H65.24V367.208H63.376V363.48H61.512V357.888H59.648V354.16H57.784V350.432H55.92V348.568H54.056V342.976H52.192V339.248H50.328V335.52H48.464V329.928H46.6V326.2H41.008V315.016H39.144V298.24H37.28V283.328H35.416V275.872H33.552V253.504H31.688V238.592H29.824V223.68H27.96V216.224H26.096V199.448H24.232V186.4H22.368V169.624H20.504V152.848H18.64V139.8H16.776V124.888H14.912V109.976H13.048V93.2H11.184V85.744H9.32V68.968H7.456V54.056H5.592V39.144H3.728V22.368H1.864V5.592H0V0ZM5.592 5.592V9.32H7.456V16.776H9.32V31.688H11.184V46.6H13.048V61.512H14.912V68.968H16.776V83.88H18.64V100.656H20.504V121.16H22.368V128.616H24.232V145.392H26.096V160.304H27.96V175.216H29.824V182.672H31.688V199.448H33.552V214.36H35.416V236.728H37.28V251.64H39.144V259.096H41.008V274.008H42.872V290.784H44.736V305.696H46.6V313.152H52.192V311.288H54.056V309.424H57.784V307.56H61.512V305.696H67.104V303.832H68.968V301.968H72.696V300.104H76.424V298.24H82.016V296.376H83.88V294.512H87.608V292.648H91.336V290.784H96.928V288.92H98.792V287.056H102.52V285.192H106.248V283.328H111.84V281.464H113.704V279.6H117.432V277.736H121.16V275.872H126.752V274.008H128.616V272.144H132.344V270.28H136.072V268.416H141.664V266.552H145.392V264.688H147.256V262.824H150.984V260.96H156.576V259.096H160.304V257.232H162.168V255.368H165.896V253.504H169.624V251.64H175.216V249.776H177.08V247.912H180.808V246.048H184.536V244.184H190.128V242.32H191.992V240.456H195.72V238.592H199.448V236.728H205.04V234.864H206.904V233H210.632V231.136H214.36V229.272H219.952V227.408H221.816V225.544H225.544V223.68H229.272V221.816H234.864V219.952H236.728V218.088H240.456V216.224H244.184V214.36H249.776V212.496H251.64V210.632H257.232V208.768H260.96V206.904H264.688V205.04H266.552V203.176H272.144V201.312H275.872V199.448H279.6V197.584H281.464V195.72H287.056V193.856H290.784V191.992H294.512V190.128H296.376V188.264H301.968V186.4H305.696V184.536H309.424V182.672H313.152V180.808H316.88V178.944H320.608V177.08H324.336V175.216H328.064V173.352H329.928V171.488H335.52V169.624H339.248V167.76H342.976V165.896H344.84V164.032H350.432V162.168H354.16V160.304H357.888V158.44H359.752V156.576H365.344V154.712H369.072V152.848H372.8V150.984H374.664V149.12H380.256V147.256H383.984V145.392H389.576V143.528H391.44V141.664H395.168V139.8H398.896V137.936H404.488V136.072H406.352V134.208H411.944V111.84H413.808V72.696H415.672V46.6H404.488V44.736H382.12V42.872H359.752V41.008H341.112V39.144H329.928V37.28H309.424V35.416H288.92V33.552H266.552V31.688H257.232V29.824H236.728V27.96H216.224V26.096H195.72V24.232H184.536V22.368H164.032V20.504H143.528V18.64H123.024V16.776H113.704V14.912H93.2V13.048H72.696V11.184H52.192V9.32H41.008V7.456H20.504V5.592H5.592ZM402.624 143.528V145.392H398.896V147.256H395.168V149.12H391.44V150.984H387.712V152.848H383.984V154.712H382.12V156.576H378.392V158.44H372.8V160.304H369.072V162.168H367.208V164.032H363.48V165.896H357.888V167.76H354.16V169.624H352.296V171.488H348.568V173.352H344.84V175.216H339.248V177.08H337.384V178.944H333.656V180.808H329.928V182.672H324.336V184.536H322.472V186.4H318.744V188.264H315.016V190.128H309.424V191.992H307.56V193.856H303.832V195.72H300.104V197.584H294.512V199.448H290.784V201.312H288.92V203.176H285.192V205.04H279.6V206.904H275.872V208.768H274.008V210.632H270.28V212.496H264.688V214.36H260.96V216.224H259.096V218.088H255.368V219.952H249.776V221.816H247.912V223.68H244.184V225.544H240.456V227.408H234.864V229.272H233V231.136H229.272V233H225.544V234.864H221.816V236.728H218.088V238.592H214.36V240.456H210.632V242.32H206.904V244.184H203.176V246.048H199.448V247.912H195.72V249.776H191.992V251.64H188.264V253.504H186.4V255.368H180.808V257.232H177.08V259.096H173.352V260.96H171.488V262.824H165.896V264.688H162.168V266.552H158.44V268.416H154.712V270.28H150.984V272.144H147.256V274.008H143.528V275.872H139.8V277.736H136.072V279.6H132.344V281.464H128.616V283.328H123.024V285.192H121.16V287.056H117.432V288.92H113.704V290.784H109.976V292.648H106.248V294.512H102.52V296.376H96.928V298.24H95.064V300.104H91.336V301.968H87.608V303.832H83.88V305.696H78.288V307.56H76.424V309.424H72.696V311.288H67.104V313.152H63.376V315.016H61.512V316.88H57.784V318.744H52.192V320.608H50.328V324.336H52.192V328.064H54.056V329.928H55.92V335.52H57.784V339.248H59.648V342.976H61.512V344.84H63.376V350.432H65.24V354.16H67.104V359.752H68.968V361.616H70.832V365.344H72.696V369.072H74.56V374.664H76.424V376.528H78.288V382.12H80.152V385.848H82.016V391.44H83.88V393.304H85.744V397.032H87.608V400.76H89.472V406.352H91.336V408.216H93.2V413.808H95.064V417.536H96.928V421.264H98.792V423.128H100.656V428.72H102.52V430.584H108.112V428.72H113.704V426.856H115.568V424.992H123.024V423.128H130.48V421.264H136.072V419.4H143.528V417.536H145.392V415.672H152.848V413.808H158.44V411.944H165.896V410.08H169.624V408.216H175.216V406.352H182.672V404.488H188.264V402.624H191.992V400.76H197.584V398.896H205.04V397.032H212.496V395.168H214.36V393.304H221.816V391.44H227.408V389.576H234.864V387.712H238.592V385.848H244.184V383.984H251.64V382.12H257.232V380.256H260.96V378.392H266.552V376.528H274.008V374.664H281.464V372.8H283.328V370.936H290.784V369.072H296.376V367.208H303.832V365.344H305.696V363.48H313.152V361.616H320.608V359.752H326.2V354.16H328.064V352.296H329.928V348.568H331.792V346.704H333.656V339.248H335.52V335.52H337.384V328.064H339.248V322.472H341.112V318.744H342.976V313.152H344.84V307.56H346.704V303.832H348.568V300.104H350.432V294.512H352.296V288.92H354.16V283.328H356.024V277.736H357.888V272.144H359.752V268.416H361.616V262.824H363.48V259.096H365.344V253.504H367.208V247.912H369.072V244.184H370.936V240.456H372.8V233H374.664V227.408H376.528V221.816H378.392V218.088H380.256V214.36H382.12V208.768H383.984V203.176H385.848V199.448H387.712V193.856H389.576V186.4H391.44V182.672H393.304V178.944H395.168V173.352H397.032V167.76H398.896V164.032H400.76V160.304H402.624V154.712H404.488V147.256H406.352V143.528H402.624ZM322.472 365.344V367.208H315.016V369.072H311.288V370.936H305.696V372.8H298.24V374.664H292.648V376.528H288.92V378.392H281.464V380.256H275.872V382.12H270.28V383.984H264.688V385.848H259.096V387.712H253.504V389.576H246.048V391.44H242.32V393.304H236.728V395.168H229.272V397.032H223.68V398.896H219.952V400.76H212.496V402.624H206.904V404.488H201.312V406.352H197.584V408.216H190.128V410.08H184.536V411.944H177.08V413.808H173.352V415.672H167.76V417.536H162.168V419.4H154.712V421.264H150.984V423.128H143.528V424.992H137.936V426.856H132.344V428.72H128.616V430.584H121.16V432.448H113.704V434.312H108.112V436.176H104.384V438.04H102.52V462.272H100.656V480.912H98.792V492.096H96.928V499.552H134.208V497.688H190.128V495.824H244.184V493.96H274.008V492.096H333.656V490.232H337.384V462.272H335.52V441.768H333.656V419.4H331.792V398.896H329.928V378.392H328.064V365.344H322.472Z" fill="black"/>
</svg>
